# xmcd
#
# Track frame offsets:
#	150
#	15320
#	29082
#	45597
#	63927
#	78345
#	91762
#	109185
#	124137
#	139797
#	158337
#	175920
#	193432
#	208445
#	230522
#
# Disc length: 3269 seconds
#
# Revision: 1
# Processed by: cddbd v1.5.1PL0 Copyright (c) Steve Scherf et al.
# Submitted via: audiograbber 1.82.01
#
DISCID=c90cc30f
DTITLE=Amado Batista - Estou Só
DYEAR=1992
DGENRE=Pop
TTITLE0=Tá Com Raiva de Mim
TTITLE1=Menina Linda
TTITLE2=Agarra Agarra
TTITLE3=Tudo Pode Acontecer
TTITLE4=Será Que Ela Me Ama
TTITLE5=Deita e Rola
TTITLE6=Ainda Sou Capaz de Amar
TTITLE7=Me Apaixonei
TTITLE8=Estou Só
TTITLE9=Paixão Colorida
TTITLE10=Não Há Outra Saída
TTITLE11=Chuva de Vento
TTITLE12=Mito
TTITLE13=Romance no Deserto
TTITLE14=Num Conto de Fadas
EXTD=
EXTT0=
EXTT1=
EXTT2=
EXTT3=
EXTT4=
EXTT5=
EXTT6=
EXTT7=
EXTT8=
EXTT9=
EXTT10=
EXTT11=
EXTT12=
EXTT13=
EXTT14=
PLAYORDER=
